<?xml version="1.0" standalone="no"?><!-- Generator: Gravit.io --><svg xmlns="http://www.w3.org/2000/svg" xmlns:xlink="http://www.w3.org/1999/xlink" style="isolation:isolate" viewBox="0.814 0.901 143.524 97.771" width="143.524" height="97.771"><linearGradient id="_lgradient_0" x1="99.99999999999945%" y1="50.00000000000018%" x2="-52.53540230409537%" y2="46.49589614546094%"><stop offset="0%" stop-opacity="1" style="stop-color:rgb(0,255,0)"/><stop offset="100%" stop-opacity="1" style="stop-color:rgb(0,0,0)"/></linearGradient><rect x="110.743" y="64.771" width="6.165" height="17.942" transform="matrix(-0.649,0.761,-0.761,-0.649,243.786,34.956)" fill="url(#_lgradient_0)"/><linearGradient id="_lgradient_1" x1="0%" y1="50%" x2="173.92024210877145%" y2="49.36048617894487%"><stop offset="0%" stop-opacity="1" style="stop-color:rgb(255,0,0)"/><stop offset="100%" stop-opacity="1" style="stop-color:rgb(0,0,0)"/></linearGradient><rect x="105.209" y="31.479" width="4.741" height="39.25" transform="matrix(1,0,0,1,0,0)" fill="url(#_lgradient_1)"/><path d=" M 28.229 72.827 L 28.229 75.563 L 8.789 75.563 L 8.789 72.827 L 11.669 72.827 L 11.669 38.699 L 8.789 38.699 L 8.789 35.963 L 25.349 35.963 L 25.349 72.827 L 28.229 72.827 Z  M 59.333 41.435 L 50.909 41.435 L 50.909 75.563 L 34.349 75.563 L 34.349 72.827 L 37.229 72.827 L 37.229 38.699 L 34.349 38.699 L 34.349 35.963 L 43.925 35.963 L 46.445 41.435 L 47.381 41.435 L 47.381 41.435 Q 48.893 37.403 51.665 36.143 L 51.665 36.143 L 51.665 36.143 Q 54.437 34.883 59.621 34.883 L 59.621 34.883 L 59.621 34.883 Q 67.469 34.883 70.277 38.555 L 70.277 38.555 L 70.277 38.555 Q 71.861 36.323 74.345 35.603 L 74.345 35.603 L 74.345 35.603 Q 76.829 34.883 81.005 34.883 L 81.005 34.883 L 81.005 34.883 Q 87.989 34.883 91.553 37.295 L 91.553 37.295 L 91.553 37.295 Q 95.117 39.707 95.117 45.683 L 95.117 45.683 L 95.117 72.827 L 97.997 72.827 L 97.997 75.563 L 81.437 75.563 L 81.437 41.435 L 73.013 41.435 L 73.013 75.563 L 59.333 75.563 L 59.333 41.435 Z  M 105.413 87.227 L 105.413 87.227 L 105.413 87.227 Q 103.469 85.787 102.893 83.879 L 102.893 83.879 L 102.893 83.879 Q 102.317 81.971 102.317 77.759 L 102.317 77.759 L 102.317 77.759 Q 102.317 73.547 104.117 71.279 L 104.117 71.279 L 104.117 71.279 Q 105.917 69.011 108.077 69.011 L 108.077 69.011 L 113.477 69.011 L 113.477 68.075 L 113.477 68.075 Q 109.805 67.355 109.805 63.539 L 109.805 63.539 L 109.805 59.075 L 109.805 59.075 Q 103.541 56.987 103.541 49.211 L 103.541 49.211 L 103.541 47.699 L 103.541 47.699 Q 103.541 41.291 105.845 38.699 L 105.845 38.699 L 105.845 38.699 Q 106.709 37.691 107.429 37.079 L 107.429 37.079 L 107.429 37.079 Q 108.149 36.467 109.481 36.035 L 109.481 36.035 L 109.481 36.035 Q 110.813 35.603 111.713 35.387 L 111.713 35.387 L 111.713 35.387 Q 112.613 35.171 114.269 35.027 L 114.269 35.027 L 114.269 35.027 Q 115.925 34.883 116.861 34.883 L 116.861 34.883 L 119.741 34.883 L 119.741 34.883 Q 124.709 34.883 127.049 36.107 L 127.049 36.107 L 127.049 36.107 Q 129.389 37.331 129.389 40.715 L 129.389 40.715 L 130.325 40.715 L 131.045 37.763 L 131.045 37.763 Q 131.837 34.523 132.989 33.443 L 132.989 33.443 L 132.989 33.443 Q 134.141 32.363 137.237 32.363 L 137.237 32.363 L 140.405 32.363 L 140.405 38.771 L 139.613 38.771 L 139.613 38.771 Q 138.245 38.771 138.245 40.787 L 138.245 40.787 L 138.245 49.211 L 138.245 49.211 Q 138.245 53.243 136.301 56.123 L 136.301 56.123 L 136.301 56.123 Q 135.149 57.995 131.261 59.291 L 131.261 59.291 L 131.261 59.291 Q 128.813 60.083 120.029 60.083 L 120.029 60.083 L 117.437 60.083 L 117.437 61.811 L 117.437 61.811 Q 117.437 64.043 117.941 64.943 L 117.941 64.943 L 117.941 64.943 Q 118.445 65.843 119.885 65.843 L 119.885 65.843 L 130.613 65.843 L 130.613 65.843 Q 134.285 65.843 137.273 68.399 L 137.273 68.399 L 137.273 68.399 Q 140.261 70.955 140.261 76.859 L 140.261 76.859 L 140.261 76.859 Q 140.261 84.347 136.301 86.975 L 136.301 86.975 L 136.301 86.975 Q 132.341 89.603 120.749 89.603 L 120.749 89.603 L 120.749 89.603 Q 114.557 89.603 110.957 89.135 L 110.957 89.135 L 110.957 89.135 Q 107.357 88.667 105.413 87.227 Z  M 115.997 54.179 L 125.861 54.179 L 125.861 40.715 L 115.997 40.715 L 115.997 54.179 Z  M 129.893 82.403 L 129.893 74.843 L 112.469 74.843 L 112.469 82.403 L 129.893 82.403 Z " fill-rule="evenodd" fill="rgb(0,0,0)"/><linearGradient id="_lgradient_2" x1="99.99999999999945%" y1="50%" x2="-52.53540230409537%" y2="46.49589614546076%"><stop offset="0%" stop-opacity="1" style="stop-color:rgb(0,255,0)"/><stop offset="100%" stop-opacity="1" style="stop-color:rgb(0,0,0)"/></linearGradient><rect x="114.946" y="73.876" width="6.165" height="6.897" transform="matrix(-0.649,0.761,-0.761,-0.649,253.442,37.664)" fill="url(#_lgradient_2)"/><linearGradient id="_lgradient_3" x1="31.14674841784843%" y1="38.9108311623439%" x2="110.33081597080195%" y2="122.83227551840356%"><stop offset="0%" stop-opacity="1" style="stop-color:rgb(255,0,0)"/><stop offset="100%" stop-opacity="1" style="stop-color:rgb(0,0,0)"/></linearGradient><path d=" M 107.58 0.901 L 125.41 32.479 L 89.749 32.479 L 107.58 0.901 Z " fill-rule="evenodd" fill="url(#_lgradient_3)"/><linearGradient id="_lgradient_4" x1="50%" y1="99.99999999999982%" x2="52.05294646087055%" y2="7.55368197124362%"><stop offset="0%" stop-opacity="1" style="stop-color:rgb(0,255,0)"/><stop offset="100%" stop-opacity="1" style="stop-color:rgb(0,0,0)"/></linearGradient><path d=" M 144.338 98.672 L 108.74 91.757 L 131.874 64.618 L 144.338 98.672 Z " fill-rule="evenodd" fill="url(#_lgradient_4)"/><linearGradient id="_lgradient_5" x1="99.99999999999966%" y1="50%" x2="-80.5590603118581%" y2="50.51070257750221%"><stop offset="0%" stop-opacity="1" style="stop-color:rgb(0,0,255)"/><stop offset="100%" stop-opacity="1" style="stop-color:rgb(0,0,0)"/></linearGradient><path d=" M 77.528 71.102 L 77.527 66.361 L 109.937 66.33 L 109.884 69.017 Q 107.625 68.911 106.626 69.333 Q 105.628 69.754 104.419 71.124 L 77.528 71.102 Z " fill="url(#_lgradient_5)"/><linearGradient id="_lgradient_6" x1="71.64398316041667%" y1="55.570153128113105%" x2="-1.1102230246251565e-14%" y2="100.00000000000009%"><stop offset="0%" stop-opacity="1" style="stop-color:rgb(0,0,255)"/><stop offset="100%" stop-opacity="1" style="stop-color:rgb(0,0,0)"/></linearGradient><path d=" M 45.95 68.739 L 77.523 50.901 L 77.531 86.562 L 45.95 68.739 Z " fill-rule="evenodd" fill="url(#_lgradient_6)"/><path d=" M 11.182 26.837 L 11.182 26.837 L 11.182 26.837 Q 10.87 27.101 10.378 27.257 L 10.378 27.257 L 10.378 27.257 Q 9.886 27.413 9.238 27.413 L 9.238 27.413 L 9.238 27.413 Q 8.374 27.413 7.81 27.197 L 7.81 27.197 L 7.81 27.197 Q 7.246 26.981 7.078 26.453 L 7.078 26.453 L 7.078 26.453 Q 6.406 24.341 5.974 23.033 L 5.974 23.033 L 5.974 23.033 Q 5.542 21.725 5.302 20.741 L 5.302 20.741 L 5.182 20.741 L 5.182 20.741 Q 5.11 22.157 5.074 23.321 L 5.074 23.321 L 5.074 23.321 Q 5.038 24.485 5.026 25.589 L 5.026 25.589 L 5.026 25.589 Q 5.014 26.693 4.978 27.821 L 4.978 27.821 L 4.978 27.821 Q 4.942 28.949 4.87 30.317 L 4.87 30.317 L 4.87 30.317 Q 4.558 30.437 4.054 30.521 L 4.054 30.521 L 4.054 30.521 Q 3.55 30.605 3.046 30.605 L 3.046 30.605 L 3.046 30.605 Q 1.99 30.605 1.402 30.269 L 1.402 30.269 L 1.402 30.269 Q 0.814 29.933 0.814 29.045 L 0.814 29.045 L 1.51 16.805 L 1.51 16.805 Q 1.702 16.493 2.35 16.133 L 2.35 16.133 L 2.35 16.133 Q 2.998 15.773 4.174 15.773 L 4.174 15.773 L 4.174 15.773 Q 5.446 15.773 6.166 16.169 L 6.166 16.169 L 6.166 16.169 Q 6.886 16.565 7.222 17.453 L 7.222 17.453 L 7.222 17.453 Q 7.438 18.029 7.69 18.773 L 7.69 18.773 L 7.69 18.773 Q 7.942 19.517 8.194 20.309 L 8.194 20.309 L 8.194 20.309 Q 8.446 21.101 8.686 21.881 L 8.686 21.881 L 8.686 21.881 Q 8.926 22.661 9.118 23.285 L 9.118 23.285 L 9.238 23.285 L 9.238 23.285 Q 9.814 21.269 10.39 19.385 L 10.39 19.385 L 10.39 19.385 Q 10.966 17.501 11.446 16.229 L 11.446 16.229 L 11.446 16.229 Q 11.806 16.037 12.37 15.905 L 12.37 15.905 L 12.37 15.905 Q 12.934 15.773 13.63 15.773 L 13.63 15.773 L 13.63 15.773 Q 14.806 15.773 15.55 16.121 L 15.55 16.121 L 15.55 16.121 Q 16.294 16.469 16.414 17.117 L 16.414 17.117 L 16.414 17.117 Q 16.51 17.597 16.618 18.593 L 16.618 18.593 L 16.618 18.593 Q 16.726 19.589 16.846 20.837 L 16.846 20.837 L 16.846 20.837 Q 16.966 22.085 17.086 23.477 L 17.086 23.477 L 17.086 23.477 Q 17.206 24.869 17.314 26.153 L 17.314 26.153 L 17.314 26.153 Q 17.422 27.437 17.494 28.505 L 17.494 28.505 L 17.494 28.505 Q 17.566 29.573 17.59 30.149 L 17.59 30.149 L 17.59 30.149 Q 17.182 30.389 16.738 30.497 L 16.738 30.497 L 16.738 30.497 Q 16.294 30.605 15.598 30.605 L 15.598 30.605 L 15.598 30.605 Q 14.686 30.605 14.062 30.293 L 14.062 30.293 L 14.062 30.293 Q 13.438 29.981 13.39 29.069 L 13.39 29.069 L 13.39 29.069 Q 13.246 26.453 13.21 24.365 L 13.21 24.365 L 13.21 24.365 Q 13.174 22.277 13.102 20.861 L 13.102 20.861 L 12.982 20.861 L 12.982 20.861 Q 12.742 21.797 12.286 23.213 L 12.286 23.213 L 12.286 23.213 Q 11.83 24.629 11.182 26.837 Z  M 27.886 25.445 L 27.886 30.317 L 27.886 30.317 Q 27.622 30.389 27.07 30.461 L 27.07 30.461 L 27.07 30.461 Q 26.518 30.533 25.99 30.533 L 25.99 30.533 L 25.99 30.533 Q 24.886 30.533 24.334 30.161 L 24.334 30.161 L 24.334 30.161 Q 23.782 29.789 23.782 28.589 L 23.782 28.589 L 23.782 25.349 L 23.782 25.349 Q 23.182 24.461 22.486 23.381 L 22.486 23.381 L 22.486 23.381 Q 21.79 22.301 21.118 21.173 L 21.118 21.173 L 21.118 21.173 Q 20.446 20.045 19.87 18.953 L 19.87 18.953 L 19.87 18.953 Q 19.294 17.861 18.934 16.949 L 18.934 16.949 L 18.934 16.949 Q 19.246 16.517 19.786 16.157 L 19.786 16.157 L 19.786 16.157 Q 20.326 15.797 21.118 15.797 L 21.118 15.797 L 21.118 15.797 Q 22.054 15.797 22.642 16.181 L 22.642 16.181 L 22.642 16.181 Q 23.23 16.565 23.758 17.621 L 23.758 17.621 L 25.75 21.629 L 25.894 21.629 L 25.894 21.629 Q 26.23 20.885 26.482 20.273 L 26.482 20.273 L 26.482 20.273 Q 26.734 19.661 26.974 19.049 L 26.974 19.049 L 26.974 19.049 Q 27.214 18.437 27.478 17.777 L 27.478 17.777 L 27.478 17.777 Q 27.742 17.117 28.078 16.253 L 28.078 16.253 L 28.078 16.253 Q 28.51 16.037 29.038 15.917 L 29.038 15.917 L 29.038 15.917 Q 29.566 15.797 30.046 15.797 L 30.046 15.797 L 30.046 15.797 Q 30.886 15.797 31.474 16.241 L 31.474 16.241 L 31.474 16.241 Q 32.062 16.685 32.062 17.573 L 32.062 17.573 L 32.062 17.573 Q 32.062 17.861 31.942 18.269 L 31.942 18.269 L 31.942 18.269 Q 31.822 18.677 31.39 19.505 L 31.39 19.505 L 31.39 19.505 Q 30.958 20.333 30.13 21.749 L 30.13 21.749 L 30.13 21.749 Q 29.302 23.165 27.886 25.445 L 27.886 25.445 Z " fill-rule="evenodd" fill="rgb(0,0,0)"/></svg>