<?xml version="1.0" standalone="no"?><!-- Generator: Gravit.io --><svg xmlns="http://www.w3.org/2000/svg" xmlns:xlink="http://www.w3.org/1999/xlink" style="isolation:isolate" viewBox="0 0 799 272" width="799" height="272"><defs><clipPath id="_clipPath_9rIxWka2Wnp3aRKKbGw5GNevLbn2El2R"><rect width="799" height="272"/></clipPath></defs><g clip-path="url(#_clipPath_9rIxWka2Wnp3aRKKbGw5GNevLbn2El2R)"><g transform="matrix(1,0,0,1,41.721,12.745)"><text transform="matrix(1,0,0,1,13.846,199.038)" style="font-family:&quot;Hyperspeed&quot;;font-weight:400;font-size:250px;font-style:normal;fill:#d71f27;stroke:none;">r </text></g><path d=" M 633.087 255.484 L 633.376 253.491 C 625.101 255.878 616.69 257.769 608.188 259.152 C 616.562 258.496 624.88 257.271 633.087 255.484 Z " fill="rgb(213,47,40)"/><path d=" M 648.028 248.806 L 648.516 251.348 C 670.553 244.434 691.228 233.761 709.627 219.801 L 707.095 215.306 C 689.369 229.61 669.41 240.901 648.018 248.726 C 648.018 248.726 648.028 248.786 648.028 248.806 Z " fill="rgb(213,47,40)"/><path d=" M 764.617 153.109 C 771.494 138.477 775.581 123.915 776.697 109.711 L 769.939 110.219 C 769.608 110.259 769.276 110.279 768.942 110.279 C 768.609 110.272 768.276 110.242 767.946 110.189 C 766.509 124.775 762.628 139.015 756.463 152.312 L 764.437 153.468 L 764.617 153.109 Z " fill="rgb(213,47,40)"/><path d=" M 721.886 209.684 C 735.447 197.634 747.126 183.621 756.533 168.11 L 750.632 165.12 C 750.453 165.04 750.293 164.93 750.124 164.831 C 741.379 180.221 730.346 194.192 717.401 206.265 C 717.471 206.325 717.541 206.355 717.61 206.425 L 721.886 209.684 Z " fill="rgb(213,47,40)"/><path d=" M 757.5 46.338 L 753.951 49.628 C 762.844 63.577 767.822 79.661 768.364 96.195 L 776.677 92.766 C 775.317 75.661 768.607 59.418 757.5 46.338 L 757.5 46.338 Z " fill="rgb(213,47,40)"/><path d=" M 632.738 18.769 C 632.788 18.938 632.858 19.008 632.908 19.008 C 632.957 19.008 632.997 18.898 632.957 18.719 L 632.359 7.057 C 643.617 5.038 655.03 4.011 666.468 3.987 C 674.393 3.979 682.309 4.515 690.16 5.592 C 692.243 5.881 694.267 6.23 696.28 6.588 L 693.449 19.088 C 693.39 19.367 693.449 19.536 693.519 19.536 C 693.589 19.536 693.709 19.416 693.828 19.157 L 700.995 7.525 C 724.299 12.509 743.027 22.397 756.752 35.783 L 764.447 29.643 C 747.871 15.3 725.574 5.303 698.662 1.575 C 690.913 0.512 683.1 -0.018 675.279 -0.01 C 646.563 -0.01 617.209 6.877 590.118 19.078 C 602.63 14.113 615.572 10.31 628.781 7.715 L 632.738 18.769 Z " fill="rgb(255,255,255)"/><path d=" M 769.999 34.826 L 762.414 41.803 C 775.481 57.113 782.807 76.111 783.664 97.132 L 769.251 103.113 C 768.444 103.332 768.494 103.621 768.982 103.621 L 769.251 103.621 L 783.734 102.544 C 783.555 119.489 779.328 137.63 770.677 156.029 C 769.909 157.654 769.092 159.259 768.275 160.864 L 753.732 158.751 C 753.618 158.72 753.501 158.703 753.383 158.701 C 753.005 158.701 753.015 158.96 753.483 159.189 L 765.872 165.379 C 754.665 185.567 739.855 203.533 722.175 218.385 L 713.205 211.618 C 712.986 211.388 712.826 211.279 712.726 211.279 C 712.627 211.279 712.577 211.528 712.796 211.937 L 718.258 221.605 C 696.178 239.4 670.66 252.44 643.304 259.91 L 641.31 249.713 C 641.31 249.234 641.21 249.015 641.091 249.015 C 640.971 249.015 640.752 249.334 640.642 249.882 L 638.968 261.036 C 624.102 264.731 608.844 266.612 593.526 266.638 C 585.062 266.64 576.608 266.04 568.229 264.843 C 564.571 264.315 561.023 263.657 557.534 262.92 L 561.87 253.241 C 562.189 252.693 562.239 252.374 562.039 252.374 C 561.84 252.374 561.561 252.574 561.043 253.042 L 553.627 262.013 C 534.908 257.547 518.841 250.052 505.973 239.965 C 522.798 255.614 550.009 267.545 578.545 270.864 C 585.338 271.652 592.17 272.045 599.008 272.04 C 675 272.04 753.882 224.665 785.309 156.578 C 807.167 109.472 799.453 64.389 769.999 34.826 Z " fill="rgb(255,255,255)"/><path d=" M 664.285 124.533 C 663.009 119.858 658.912 117.226 653.909 117.226 C 651.313 117.263 648.758 117.883 646.433 119.04 C 638.459 122.888 633.476 131.579 635.369 138.457 C 636.645 143.132 640.742 145.763 645.746 145.763 C 648.342 145.726 650.897 145.106 653.221 143.949 C 661.205 140.062 666.159 131.36 664.285 124.533 Z " fill="rgb(213,47,40)"/><path d=" M 768.474 30.65 C 767.808 30.745 767.185 31.033 766.68 31.477 L 660.856 115.333 C 664.182 116.973 666.646 119.959 667.624 123.536 C 667.762 124.16 667.858 124.793 667.913 125.43 L 768.295 32.573 C 768.843 31.936 769.062 31.517 769.042 31.248 C 768.983 30.956 768.762 30.724 768.474 30.65 L 768.474 30.65 Z " fill="rgb(213,47,40)"/><path d=" M 7 211.937 L 1.847 211.937 L 25.877 67.113 L 31.021 67.113 L 16.447 154.98 L 7 211.937 L 7 211.937 Z " fill="rgb(239,65,60)"/><path d=" M 15.577 211.279 L 9.527 211.279 L 33.95 67.113 L 40 67.113 L 15.577 211.279 L 15.577 211.279 Z " fill="rgb(239,65,60)"/><path d=" M 30.021 211.285 L 20.013 211.285 L 45.503 66.894 L 55.51 66.894 L 30.021 211.285 L 30.021 211.285 Z " fill="rgb(239,65,60)"/><path d=" M 58.144 211.684 L 35.762 211.684 L 61.426 67.113 L 84.513 67.113 L 58.144 211.684 Z " fill="rgb(228,51,40)"/><g transform="matrix(1,0,0,1,210.526,12.839)"><text transform="matrix(1,0,0,1,13.846,199.038)" style="font-family:&quot;Hyperspeed&quot;;font-weight:400;font-size:250px;font-style:normal;fill:#b42025;stroke:none;">p </text></g><g transform="matrix(1,0,0,1,386.447,12.745)"><text transform="matrix(1,0,0,1,13.846,199.038)" style="font-family:&quot;Hyperspeed&quot;;font-weight:400;font-size:250px;font-style:normal;fill:#931a1d;stroke:none;">m </text></g></g></svg>